<?xml version="1.0" encoding="UTF-8" standalone="no"?>
<!-- Created with Inkscape (http://www.inkscape.org/) -->

<svg
   xmlns:dc="http://purl.org/dc/elements/1.1/"
   xmlns:cc="http://creativecommons.org/ns#"
   xmlns:rdf="http://www.w3.org/1999/02/22-rdf-syntax-ns#"
   xmlns:svg="http://www.w3.org/2000/svg"
   xmlns="http://www.w3.org/2000/svg"
   xmlns:sodipodi="http://sodipodi.sourceforge.net/DTD/sodipodi-0.dtd"
   xmlns:inkscape="http://www.inkscape.org/namespaces/inkscape"
   width="210mm"
   height="297mm"
   viewBox="0 0 210 297"
   version="1.1"
   id="svg8"
   sodipodi:docname="buddy-icon.svg"
   inkscape:version="0.92.5 (2060ec1f9f, 2020-04-08)">
  <defs
     id="defs2" />
  <sodipodi:namedview
     id="base"
     pagecolor="#ffffff"
     bordercolor="#666666"
     borderopacity="1.0"
     inkscape:pageopacity="0.0"
     inkscape:pageshadow="2"
     inkscape:zoom="1"
     inkscape:cx="233.16752"
     inkscape:cy="542.64418"
     inkscape:document-units="mm"
     inkscape:current-layer="g4603"
     showgrid="false"
     showguides="true"
     inkscape:guide-bbox="true"
     inkscape:window-width="1890"
     inkscape:window-height="1006"
     inkscape:window-x="30"
     inkscape:window-y="32"
     inkscape:window-maximized="0" />
  <metadata
     id="metadata5">
    <rdf:RDF>
      <cc:Work
         rdf:about="">
        <dc:format>image/svg+xml</dc:format>
        <dc:type
           rdf:resource="http://purl.org/dc/dcmitype/StillImage" />
        <dc:title></dc:title>
      </cc:Work>
    </rdf:RDF>
  </metadata>
  <g
     inkscape:label="Layer 1"
     inkscape:groupmode="layer"
     id="layer1">
    <flowRoot
       xml:space="preserve"
       id="flowRoot815"
       style="fill:black;fill-opacity:1;stroke:none;font-family:sans-serif;font-style:normal;font-weight:bold;font-size:192px;line-height:1.25;letter-spacing:0px;word-spacing:0px;-inkscape-font-specification:'sans-serif Bold';font-stretch:normal;font-variant:normal;"><flowRegion
         id="flowRegion817"
         style="font-size:192px;"><rect
           id="rect819"
           width="537.40118"
           height="186.87822"
           x="74.751289"
           y="141.66156"
           style="font-size:192px;" /></flowRegion><flowPara
         id="flowPara821" /></flowRoot>    <text
       xml:space="preserve"
       style="font-style:italic;font-variant:normal;font-weight:bold;font-stretch:normal;font-size:50.79999924px;line-height:1.25;font-family:sans-serif;-inkscape-font-specification:'sans-serif Bold Italic';letter-spacing:0px;word-spacing:0px;fill:#000000;fill-opacity:1;stroke:none;stroke-width:0.26458332;"
       x="10.95805"
       y="89.064308"
       id="text825"><tspan
         sodipodi:role="line"
         id="tspan823"
         x="10.95805"
         y="134.01041"
         style="stroke-width:0.26458332;-inkscape-font-specification:'sans-serif Bold Italic';font-family:sans-serif;font-weight:bold;font-style:italic;font-stretch:normal;font-variant:normal;" /></text>
    <text
       xml:space="preserve"
       style="font-style:oblique;font-variant:normal;font-weight:normal;font-stretch:semi-condensed;font-size:50.79999924px;line-height:1.25;font-family:'DejaVu Sans';-inkscape-font-specification:'DejaVu Sans Oblique Semi-Condensed';letter-spacing:0px;word-spacing:0px;fill:#000000;fill-opacity:1;stroke:none;stroke-width:0.26458332;"
       x="71.4375"
       y="95.916664"
       id="text833"><tspan
         sodipodi:role="line"
         id="tspan831"
         x="71.4375"
         y="140.86276"
         style="stroke-width:0.26458332;-inkscape-font-specification:'DejaVu Sans Oblique Semi-Condensed';font-family:'DejaVu Sans';font-weight:normal;font-style:oblique;font-stretch:semi-condensed;font-variant:normal;" /></text>
    <g
       id="g4603"
       transform="matrix(2.1442333,0,0,2.1442333,-108.89588,-88.29679)">
      <g
         transform="matrix(1.017952,0,-0.33075266,1.017952,18.657242,23.214426)"
         id="text829"
         style="font-style:italic;font-variant:normal;font-weight:600;font-stretch:normal;font-size:50.79999924px;line-height:1.25;font-family:FreeSans;-inkscape-font-specification:'FreeSans Semi-Bold Italic';letter-spacing:0px;word-spacing:0px;fill:#000000;fill-opacity:1;stroke:none;stroke-width:0.26458332"
         aria-label="V"
         inkscape:export-filename="/home/jtgans/path4670.png"
         inkscape:export-xdpi="49.23"
         inkscape:export-ydpi="49.23">
        <path
           inkscape:connector-curvature="0"
           id="path4549"
           style="font-style:normal;font-variant:normal;font-weight:600;font-stretch:normal;font-family:FreeSans;-inkscape-font-specification:'FreeSans Semi-Bold';stroke-width:0.26458332"
           d="m 71.649822,97.274445 12.7,-37.0332 h -7.428366 l -9.269961,24.218259 -7.86899,-24.21826 h -6.838649 l 12.032816,37.033199 z"
           sodipodi:nodetypes="cccccccc" />
      </g>
      <path
         style="fill:#ff4444;fill-opacity:1;stroke:none;stroke-width:0.2697573;stroke-linejoin:bevel;stroke-miterlimit:4;stroke-dasharray:none;stroke-opacity:1"
         d="m 93.441022,72.78424 h 4.38626 l -40.814405,61.21691 h -4.38626 z"
         id="rect4552"
         inkscape:connector-curvature="0"
         sodipodi:nodetypes="ccccc"
         inkscape:export-filename="/home/jtgans/path4670.png"
         inkscape:export-xdpi="49.23"
         inkscape:export-ydpi="49.23" />
      <path
         sodipodi:nodetypes="cccccsccccccccccccccccsc"
         inkscape:connector-curvature="0"
         style="font-style:oblique;font-variant:normal;font-weight:bold;font-stretch:semi-condensed;font-size:50.79999924px;line-height:1.25;font-family:'DejaVu Sans';-inkscape-font-specification:'DejaVu Sans Bold Oblique Semi-Condensed';letter-spacing:-6.15685606px;word-spacing:0px;fill:#000000;fill-opacity:1;stroke:none;stroke-width:0.09539773"
         d="m 81.373466,108.52674 c -0.685671,0 -1.368578,0.0745 -2.048705,0.22356 -0.68107,0.1431 -1.255872,0.3637 -1.936459,0.66182 v 2.83516 c 0.713974,-0.46507 1.187238,-0.80802 1.77862,-1.02862 0.596416,-0.22657 1.148043,-0.33983 1.654846,-0.33983 0.542573,0 0.984048,0.13418 1.324317,0.40248 0.346234,0.26831 0.557691,0.64693 0.634503,1.13584 0.07208,0.4591 3.54e-4,0.93315 -0.214773,1.42206 -0.215346,0.48891 -0.56588,0.97187 -1.051413,1.44886 l -4.1261,4.45383 10e-7,2.37904 h 8.365555 l -0.0025,-0.9409 c -0.402222,-0.41108 -0.664595,-0.86641 -0.83335,-1.43814 h -4.346503 l 2.61159,-2.65626 c 1.269679,-1.21631 2.016647,-2.18215 2.333557,-2.89764 0.06447,-0.14556 0.103607,-0.29455 0.149302,-0.44653 -0.258385,-0.38157 -0.427303,-0.82287 -0.506116,-1.32432 -0.113362,-0.72154 -0.05325,-1.35087 0.180199,-1.88806 -0.243208,-0.43326 -0.514893,-0.8056 -0.938729,-1.11697 -0.796305,-0.59027 -1.805537,-0.88538 -3.02782,-0.88538 z"
         id="path4674"
         inkscape:export-filename="/home/jtgans/path4670.png"
         inkscape:export-xdpi="49.23"
         inkscape:export-ydpi="49.23" />
      <path
         inkscape:connector-curvature="0"
         style="font-style:oblique;font-variant:normal;font-weight:bold;font-stretch:semi-condensed;font-size:50.79999924px;line-height:1.25;font-family:'DejaVu Sans';-inkscape-font-specification:'DejaVu Sans Bold Oblique Semi-Condensed';letter-spacing:-6.15685606px;word-spacing:0px;fill:#000000;fill-opacity:1;stroke:none;stroke-width:0.09539773"
         d="m 89.925758,108.52676 c -1.580025,0 -2.762833,0.34581 -3.54854,1.03744 -0.785715,0.69164 -1.083529,1.64259 -0.893374,2.85295 0.09465,0.6022 0.318773,1.11797 0.672395,1.54725 0.359591,0.4293 0.849598,0.7781 1.470096,1.0464 -0.952025,0.316 -1.655105,0.83177 -2.109122,1.54726 -0.454955,0.70952 -0.607927,1.53823 -0.458979,2.48624 0.164845,1.04938 0.663335,1.86921 1.495379,2.45949 0.831133,0.58431 1.908513,0.87651 3.232158,0.87651 1.681383,0 2.939231,-0.39951 3.773687,-1.19846 0.840381,-0.79896 1.152828,-1.8841 0.937425,-3.25544 -0.113326,-0.72145 -0.362052,-1.31772 -0.746083,-1.78874 -0.384027,-0.47103 -0.925949,-0.84663 -1.625809,-1.12686 0.858162,-0.2683 1.481398,-0.70358 1.869725,-1.30578 0.39432,-0.60219 0.524999,-1.32659 0.391982,-2.17325 -0.149869,-0.95397 -0.614823,-1.69331 -1.394842,-2.218 -0.780022,-0.52469 -1.80208,-0.78701 -3.066098,-0.78701 z m 0.05379,2.1643 c 0.393516,0 0.729291,0.12523 1.007114,0.37565 0.276885,0.24446 0.44761,0.57234 0.512251,0.98374 0.09179,0.58431 -0.0011,1.05535 -0.278847,1.41309 -0.27267,0.35178 -0.683294,0.52772 -1.231829,0.52772 -0.387555,0 -0.720255,-0.12523 -0.998078,-0.37565 -0.277856,-0.25042 -0.448548,-0.57839 -0.512248,-0.98383 -0.09181,-0.58431 -0.0014,-1.05236 0.271285,-1.40414 0.271728,-0.35774 0.681817,-0.53658 1.230352,-0.53658 z m -0.198295,5.45555 c 0.471026,0 0.86666,0.14605 1.186814,0.43821 0.326115,0.29215 0.528083,0.68568 0.605834,1.18056 0.109607,0.69759 -0.0073,1.28191 -0.350708,1.75294 -0.344285,0.46506 -0.835426,0.69759 -1.473396,0.69759 -0.476991,0 -0.875044,-0.14307 -1.194288,-0.42926 -0.314193,-0.29216 -0.510182,-0.68568 -0.587936,-1.18056 -0.108658,-0.69163 0.0087,-1.27296 0.352103,-1.74399 0.348395,-0.47699 0.835529,-0.71549 1.461577,-0.71549 z"
         id="path4672"
         inkscape:export-filename="/home/jtgans/path4670.png"
         inkscape:export-xdpi="49.23"
         inkscape:export-ydpi="49.23" />
      <path
         inkscape:connector-curvature="0"
         style="font-style:oblique;font-variant:normal;font-weight:bold;font-stretch:semi-condensed;font-size:50.79999924px;line-height:1.25;font-family:'DejaVu Sans';-inkscape-font-specification:'DejaVu Sans Bold Oblique Semi-Condensed';letter-spacing:-6.15685606px;word-spacing:0px;fill:#000000;fill-opacity:1;stroke:none;stroke-width:0.09539773"
         d="m 74.623535,108.99469 -3.013701,4.51638 v 6.23083 h -2.899608 v 2.37902 h 8.366106 l 1e-6,-2.37902 h -2.452798 z"
         id="path4670"
         sodipodi:nodetypes="ccccccccc"
         inkscape:export-filename="/home/jtgans/path4670.png"
         inkscape:export-xdpi="49.23"
         inkscape:export-ydpi="49.23" />
    </g>
  </g>
</svg>
