<?xml version="1.0" encoding="UTF-8" standalone="no"?>
<!-- Created with Inkscape (http://www.inkscape.org/) -->

<svg
   xmlns:dc="http://purl.org/dc/elements/1.1/"
   xmlns:cc="http://creativecommons.org/ns#"
   xmlns:rdf="http://www.w3.org/1999/02/22-rdf-syntax-ns#"
   xmlns:svg="http://www.w3.org/2000/svg"
   xmlns="http://www.w3.org/2000/svg"
   xmlns:sodipodi="http://sodipodi.sourceforge.net/DTD/sodipodi-0.dtd"
   xmlns:inkscape="http://www.inkscape.org/namespaces/inkscape"
   width="210mm"
   height="297mm"
   viewBox="0 0 210 297"
   version="1.1"
   id="svg8"
   sodipodi:docname="v128-logo.svg"
   inkscape:version="0.92.5 (2060ec1f9f, 2020-04-08)">
  <defs
     id="defs2" />
  <sodipodi:namedview
     id="base"
     pagecolor="#ffffff"
     bordercolor="#666666"
     borderopacity="1.0"
     inkscape:pageopacity="0.0"
     inkscape:pageshadow="2"
     inkscape:zoom="1"
     inkscape:cx="230.83921"
     inkscape:cy="602.15507"
     inkscape:document-units="mm"
     inkscape:current-layer="g4603"
     showgrid="false"
     showguides="true"
     inkscape:guide-bbox="true"
     inkscape:window-width="1890"
     inkscape:window-height="1006"
     inkscape:window-x="30"
     inkscape:window-y="32"
     inkscape:window-maximized="0" />
  <metadata
     id="metadata5">
    <rdf:RDF>
      <cc:Work
         rdf:about="">
        <dc:format>image/svg+xml</dc:format>
        <dc:type
           rdf:resource="http://purl.org/dc/dcmitype/StillImage" />
      </cc:Work>
    </rdf:RDF>
  </metadata>
  <g
     inkscape:label="Layer 1"
     inkscape:groupmode="layer"
     id="layer1">
    <flowRoot
       xml:space="preserve"
       id="flowRoot815"
       style="fill:black;fill-opacity:1;stroke:none;font-family:sans-serif;font-style:normal;font-weight:bold;font-size:192px;line-height:1.25;letter-spacing:0px;word-spacing:0px;-inkscape-font-specification:'sans-serif Bold';font-stretch:normal;font-variant:normal;"><flowRegion
         id="flowRegion817"
         style="font-size:192px;"><rect
           id="rect819"
           width="537.40118"
           height="186.87822"
           x="74.751289"
           y="141.66156"
           style="font-size:192px;" /></flowRegion><flowPara
         id="flowPara821"></flowPara></flowRoot>    <text
       xml:space="preserve"
       style="font-style:italic;font-variant:normal;font-weight:bold;font-stretch:normal;font-size:50.79999924px;line-height:1.25;font-family:sans-serif;-inkscape-font-specification:'sans-serif Bold Italic';letter-spacing:0px;word-spacing:0px;fill:#000000;fill-opacity:1;stroke:none;stroke-width:0.26458332;"
       x="10.95805"
       y="89.064308"
       id="text825"><tspan
         sodipodi:role="line"
         id="tspan823"
         x="10.95805"
         y="134.01041"
         style="stroke-width:0.26458332;-inkscape-font-specification:'sans-serif Bold Italic';font-family:sans-serif;font-weight:bold;font-style:italic;font-stretch:normal;font-variant:normal;" /></text>
    <text
       xml:space="preserve"
       style="font-style:oblique;font-variant:normal;font-weight:normal;font-stretch:semi-condensed;font-size:50.79999924px;line-height:1.25;font-family:'DejaVu Sans';-inkscape-font-specification:'DejaVu Sans Oblique Semi-Condensed';letter-spacing:0px;word-spacing:0px;fill:#000000;fill-opacity:1;stroke:none;stroke-width:0.26458332;"
       x="71.4375"
       y="95.916664"
       id="text833"><tspan
         sodipodi:role="line"
         id="tspan831"
         x="71.4375"
         y="140.86276"
         style="stroke-width:0.26458332;-inkscape-font-specification:'DejaVu Sans Oblique Semi-Condensed';font-family:'DejaVu Sans';font-weight:normal;font-style:oblique;font-stretch:semi-condensed;font-variant:normal;"></tspan></text>
    <g
       id="g4603"
       transform="matrix(2.1442333,0,0,2.1442333,-108.89588,-88.29679)">
      <g
         id="g4847"
         transform="translate(1.8509211)">
        <g
           aria-label="V"
           style="font-style:italic;font-variant:normal;font-weight:600;font-stretch:normal;font-size:50.79999924px;line-height:1.25;font-family:FreeSans;-inkscape-font-specification:'FreeSans Semi-Bold Italic';letter-spacing:0px;word-spacing:0px;fill:#000000;fill-opacity:1;stroke:none;stroke-width:0.26458332"
           id="text829"
           transform="matrix(1.017952,0,-0.33075266,1.017952,16.806321,23.214426)">
          <path
             sodipodi:nodetypes="cccccccc"
             d="m 71.892256,97.274445 12.7,-37.0332 h -7.6708 l -9.269961,24.218259 -7.86899,-24.21826 h -6.838649 l 12.032816,37.033199 z"
             style="font-style:normal;font-variant:normal;font-weight:600;font-stretch:normal;font-family:FreeSans;-inkscape-font-specification:'FreeSans Semi-Bold';stroke-width:0.26458332"
             id="path4549"
             inkscape:connector-curvature="0" />
        </g>
        <path
           sodipodi:nodetypes="ccccc"
           inkscape:connector-curvature="0"
           id="rect4552"
           d="m 140.15862,87.501124 h 4.38626 l 0.0353,73.594896 h -4.38626 z"
           style="fill:#ff4444;fill-opacity:1;stroke:none;stroke-width:0.29577491;stroke-linejoin:bevel;stroke-miterlimit:4;stroke-dasharray:none;stroke-opacity:1"
           transform="matrix(1,0,-0.55506166,0.8318092,0,0)" />
        <path
           id="path4674"
           transform="matrix(0.12339298,0,0,0.12339298,50.785463,41.178723)"
           d="m 462.00391,346.09961 c -15.68834,0 -31.3135,1.70472 -46.875,5.11523 -15.58306,3.27409 -31.16233,8.32156 -46.73438,15.14258 l -1.67773,64.86914 c 16.33591,-10.6408 31.26973,-18.4876 44.80078,-23.53515 13.64616,-5.18399 26.26748,-7.77539 37.86328,-7.77539 12.41424,0 22.51533,3.07007 30.30078,9.20898 7.92193,6.13892 12.7601,14.8018 14.51758,25.98828 1.64912,10.50437 0.009,21.35065 -4.91406,32.53711 -4.92719,11.18646 -12.9475,22.23672 -24.05664,33.15039 l -93.7461,90.57813 -0.084,5.32617 h 0.28515 l -0.0957,6 h 0.0957 l -0.86132,54.43359 h 191.40625 l 0.47265,-24.17969 c -9.20298,-9.40575 -15.73651,-20.64902 -19.59765,-33.73046 H 443.6543 l 59.7539,-57.29883 c 29.0506,-27.82971 47.20215,-49.92836 54.45313,-66.29883 1.47508,-3.33054 2.724,-6.73939 3.76953,-10.2168 -5.91189,-8.73031 -9.77677,-18.82738 -11.58008,-30.30078 -2.59368,-16.50903 -1.21847,-30.90832 4.12305,-43.19922 -5.5647,-9.91327 -13.19508,-18.43236 -22.89258,-25.55664 -18.21968,-13.50561 -41.31117,-20.25781 -69.27734,-20.25781 z"
           style="font-style:oblique;font-variant:normal;font-weight:bold;font-stretch:semi-condensed;font-size:50.79999924px;line-height:1.25;font-family:'DejaVu Sans';-inkscape-font-specification:'DejaVu Sans Bold Oblique Semi-Condensed';letter-spacing:-6.15685606px;word-spacing:0px;fill:#000000;fill-opacity:1;stroke:none;stroke-width:2.18272638"
           inkscape:connector-curvature="0" />
        <path
           id="path4672"
           d="m 131.93889,83.885045 c -4.46083,0 -7.80021,0.97631 -10.01847,2.928975 -2.21828,1.952665 -3.05909,4.637457 -2.52223,8.054622 0.26722,1.700165 0.89998,3.156318 1.89835,4.368316 1.01522,1.212002 2.39864,2.196752 4.15047,2.954242 -2.68782,0.89217 -4.6728,2.34832 -5.95461,4.36832 -1.28446,2.00317 -1.71634,4.34284 -1.29582,7.01934 0.4654,2.96266 1.87277,5.27727 4.22185,6.94377 2.34651,1.64967 5.38824,2.47463 9.12524,2.47463 4.74699,0 8.29823,-1.12791 10.65412,-3.38357 2.37262,-2.25567 3.25474,-5.31932 2.6466,-9.19098 -0.31995,-2.03683 -1.02217,-3.72026 -2.10639,-5.05009 -1.08421,-1.32983 -2.6142,-2.39025 -4.59009,-3.18142 2.42282,-0.75749 4.18238,-1.98638 5.27873,-3.686546 1.11327,-1.700165 1.48221,-3.745332 1.10667,-6.135663 -0.42312,-2.693331 -1.73581,-4.780674 -3.93801,-6.262006 -2.20221,-1.481336 -5.08775,-2.22194 -8.65641,-2.22194 z m 0.15186,6.110394 c 1.111,0 2.05898,0.353556 2.84335,1.060555 0.78172,0.690166 1.26372,1.615862 1.44622,2.777362 0.25914,1.649665 -0.003,2.979531 -0.78726,3.98953 -0.76982,0.993166 -1.92912,1.489879 -3.47778,1.489879 -1.09417,0 -2.03347,-0.353555 -2.81784,-1.060554 -0.78446,-0.707 -1.26637,-1.632941 -1.44621,-2.777608 -0.25921,-1.649666 -0.004,-2.971095 0.76591,-3.964262 0.76716,-1.009998 1.92495,-1.514902 3.47361,-1.514902 z m -0.55984,15.402451 c 1.32983,0 2.44681,0.41236 3.35069,1.23719 0.92071,0.82483 1.49092,1.93587 1.71043,3.33303 0.30945,1.9695 -0.0206,3.61918 -0.99014,4.94901 -0.97201,1.313 -2.35863,1.9695 -4.15979,1.9695 -1.34667,0 -2.47048,-0.40392 -3.37179,-1.21192 -0.88705,-0.82484 -1.44038,-1.93587 -1.6599,-3.33304 -0.30677,-1.95266 0.0247,-3.5939 0.99408,-4.92374 0.98361,-1.34666 2.35892,-2.02003 4.12642,-2.02003 z"
           style="font-style:oblique;font-variant:normal;font-weight:bold;font-stretch:semi-condensed;font-size:50.79999924px;line-height:1.25;font-family:'DejaVu Sans';-inkscape-font-specification:'DejaVu Sans Bold Oblique Semi-Condensed';letter-spacing:-6.15685606px;word-spacing:0px;fill:#000000;fill-opacity:1;stroke:none;stroke-width:0.26933312"
           inkscape:connector-curvature="0" />
        <path
           id="path4670"
           d="m 88.736652,84.959338 -8.508479,12.750943 -0.303226,17.838069 h -7.726372 l -0.156764,6.7166 h 23.760053 l 0.106473,-6.7166 h -7.701349 z"
           style="font-style:oblique;font-variant:normal;font-weight:bold;font-stretch:semi-condensed;font-size:50.79999924px;line-height:1.25;font-family:'DejaVu Sans';-inkscape-font-specification:'DejaVu Sans Bold Oblique Semi-Condensed';letter-spacing:-6.15685606px;word-spacing:0px;fill:#000000;fill-opacity:1;stroke:none;stroke-width:0.26933312"
           inkscape:connector-curvature="0" />
      </g>
      <text
         xml:space="preserve"
         style="font-style:normal;font-variant:normal;font-weight:200;font-stretch:normal;font-size:12.51725769px;line-height:1.25;font-family:'DejaVu Sans';-inkscape-font-specification:'DejaVu Sans Ultra-Light';letter-spacing:-1.26998007px;word-spacing:0px;fill:#000000;fill-opacity:1;stroke:none;stroke-width:0.1303881"
         x="49.441196"
         y="144.79877"
         id="text4689"><tspan
           sodipodi:role="line"
           id="tspan4687"
           x="49.441196"
           y="144.79877"
           style="letter-spacing:-1.26998007px;stroke-width:0.1303881">HOME  COMPUTER</tspan></text>
    </g>
  </g>
</svg>
